<svg xmlns="http://www.w3.org/2000/svg" viewBox="0 0 1400 360" preserveAspectRatio="none">
<defs>
  <linearGradient id="bg" x1="0" y1="0" x2="1" y2="1"><stop stop-color="#0a0f18"/><stop offset="1" stop-color="#07141a"/></linearGradient>
  <linearGradient id="g" x1="0" y1="0" x2="1" y2="0"><stop stop-color="#7c3aed"/><stop offset=".52" stop-color="#8b5cf6"/><stop offset="1" stop-color="#22d3ee"/></linearGradient>
  <filter id="blur"><feGaussianBlur stdDeviation="12"/></filter>
</defs>
<rect width="1400" height="360" fill="url(#bg)"/>
<g opacity=".12" stroke="#9fb3c8"><path d="M0 72H1400M0 144H1400M0 216H1400M0 288H1400"/></g>
<g transform="translate(690 180)">
  <circle r="112" fill="#8b5cf6" opacity=".07" filter="url(#blur)"><animate attributeName="r" values="105;132;105" dur="4s" repeatCount="indefinite"/></circle>
</g>
<g fill="url(#g)" opacity=".92">
  <rect x="760" y="139" width="14" height="82" rx="7"><animate attributeName="height" values="82;178;82" dur="1.7s" repeatCount="indefinite"/><animate attributeName="y" values="139;91;139" dur="1.7s" repeatCount="indefinite"/></rect>
  <rect x="790" y="107" width="14" height="146" rx="7"><animate attributeName="height" values="146;64;146" dur="1.25s" repeatCount="indefinite"/><animate attributeName="y" values="107;148;107" dur="1.25s" repeatCount="indefinite"/></rect>
  <rect x="820" y="77" width="14" height="206" rx="7"><animate attributeName="height" values="206;122;206" dur="1.9s" repeatCount="indefinite"/><animate attributeName="y" values="77;119;77" dur="1.9s" repeatCount="indefinite"/></rect>
  <rect x="850" y="126" width="14" height="108" rx="7"><animate attributeName="height" values="108;220;108" dur="1.45s" repeatCount="indefinite"/><animate attributeName="y" values="126;70;126" dur="1.45s" repeatCount="indefinite"/></rect>
  <rect x="880" y="96" width="14" height="168" rx="7"><animate attributeName="height" values="168;88;168" dur="1.6s" repeatCount="indefinite"/><animate attributeName="y" values="96;136;96" dur="1.6s" repeatCount="indefinite"/></rect>
  <rect x="910" y="142" width="14" height="76" rx="7"><animate attributeName="height" values="76;154;76" dur="1.3s" repeatCount="indefinite"/><animate attributeName="y" values="142;103;142" dur="1.3s" repeatCount="indefinite"/></rect>
</g>
<path d="M720 180 C760 120 800 240 840 180 S920 120 960 180 S1040 240 1080 180 S1160 120 1200 180 S1280 240 1320 180" fill="none" stroke="url(#g)" stroke-width="3" opacity=".45">
  <animate attributeName="d" dur="3.1s" repeatCount="indefinite" values="M720 180 C760 120 800 240 840 180 S920 120 960 180 S1040 240 1080 180 S1160 120 1200 180 S1280 240 1320 180;M720 180 C760 245 800 115 840 180 S920 245 960 180 S1040 115 1080 180 S1160 245 1200 180 S1280 115 1320 180;M720 180 C760 120 800 240 840 180 S920 120 960 180 S1040 240 1080 180 S1160 120 1200 180 S1280 240 1320 180"/>
</path>
</svg>